# xmcd
#
# Track frame offsets: 
#        150
#        1031
#        24313
#        40743
#        56454
#        72885
#        92931
#        118411
#        135702
#        160034
#        179443
#        195376
#        213690
#        231234
#        248403
#        267449
#        289255
#
# Disc length: 4129 seconds
#
# Revision: 0
# Processed by: cddbd v1.5.2PL0 Copyright (c) Steve Scherf et al.
# Submitted via: ExactAudioCopy v1.1
#
DISCID=ed101f11
DTITLE=Various Artist - 50 Jaar Radio Veronica - The 90's - CD3
DYEAR=2010
DGENRE=Top 40
TTITLE0=Jingle - Het Knalt Uit Je Radio
TTITLE1=Sinéad O'Connor - Nothing Compares 2 U
TTITLE2=Paul Weller - You Do Something To Me
TTITLE3=Des'ree - Life
TTITLE4=The Cardigans - My Favourite Game
TTITLE5=Coolio & LV - Gangsta's Paradise
TTITLE6=Extreme - More Than Words
TTITLE7=Londonbeat - I've Been Thinking About You
TTITLE8=Bad English - Time Stood Still
TTITLE9=MC Hammer - U Can't Touch This
TTITLE10=Salt 'N' Pepa - Let's Talk About Sex
TTITLE11=Ugly Kid Joe - Cats In The Cradle
TTITLE12=Narcotic - Narcotic
TTITLE13=Snap! - The Power
TTITLE14=Adamski - Killer
TTITLE15=Manic Street Preachers - If You Tolerate This Your Children W
TTITLE15=ill Be Next
TTITLE16=Ten Sharp - You
EXTD=
EXTT0=
EXTT1=
EXTT2=
EXTT3=
EXTT4=
EXTT5=
EXTT6=
EXTT7=
EXTT8=
EXTT9=
EXTT10=
EXTT11=
EXTT12=
EXTT13=
EXTT14=
EXTT15=
EXTT16=
PLAYORDER=
